<svg xmlns="http://www.w3.org/2000/svg" viewBox="0 0 599.22 138.41"><defs><style>.cls-1{fill:#231f20;}.cls-2{fill:#fff;}.cls-3{fill:#ee2a24;}</style></defs><g id="Layer_2" data-name="Layer 2"><g id="Layer_1-2" data-name="Layer 1"><path class="cls-1" d="M228.41,93.73l-3.51-44h-.15L211.19,84.87c-1.25,3.27-4,5.95-7.92,5.95s-7-3.23-7.91-5.95L182.1,50.2H182l-3.81,43.53H165.21l6.61-62c.43-3.42,3.24-7.31,7.05-7.31,5.85,0,8.2,3.42,9.36,6.84l15,37.63h.15l15-37.63c1.32-3.42,3.58-6.84,9.36-6.84,3.82,0,6.62,3.89,7,8.11l6.55,61.18Z"/><polygon class="cls-1" points="248.12 41.31 260.18 41.31 260.18 93.72 248.12 93.72 248.12 41.31 248.12 41.31"/><polygon class="cls-1" points="533.23 41.31 545.29 41.31 545.29 93.72 533.23 93.72 533.23 41.31 533.23 41.31"/><path class="cls-1" d="M266.85,59.7c0-15.35,5.87-19,15.74-19h12.89c15.59,0,17.62-1,17.52,13.83l-28.25-.05c-5.78,0-6.65,3.67-6.65,10.18v5.65c0,7.6,1.09,10.5,6.27,10.5l29.07,0c0,8.83-.12,13.49-11.12,13.49H282.59c-9.87,0-15.74-3.62-15.74-19V59.7Z"/><path class="cls-1" d="M365.78,60.2V56.87c0-9.41-2.27-15.56-10.71-15.56H320V93.72h11V80.11h19.17c3.41,0,4.49,1.81,4.49,7.31v6.3h11v-8.9c0-8.62-2.71-10.72-6-11.59v-.14c5-1.74,6.12-5.87,6.12-12.89h0m-10.66,1.38c0,3.76-1.09,5.5-4.05,5.5H331V54.34h19.08c3.45,0,5,.87,5,5.5v1.74Z"/><path class="cls-1" d="M372.39,59.7c0-15.35,5.87-19,15.74-19h17.58c9.87,0,15.74,3.62,15.74,19V75.33c0,15.35-5.87,19-15.74,19H388.13c-9.87,0-15.74-3.62-15.74-19V59.7h0m11.25,10.64c0,7.6,1.09,10.5,6.27,10.5h14c5.18,0,6.27-2.9,6.27-10.5V64.69c0-6.51-1.09-10.5-6.87-10.5H390.5c-5.77,0-6.86,4-6.86,10.5v5.65Z"/><polygon class="cls-1" points="480.47 41.31 491.42 41.31 491.42 59.99 514.52 59.99 514.52 41.31 525.48 41.31 525.48 93.72 514.52 93.72 514.52 73.88 491.42 73.88 491.42 93.72 480.47 93.72 480.47 41.31 480.47 41.31"/><path class="cls-1" d="M586.29,41.31H552.42V93.72h11V80.55h25.78c7.75,0,10.07-9,10.07-16.8V59.26c0-10.28-2.52-17.95-12.93-17.95h0M588,61.94c0,3.11-1,5.57-3.56,5.57h-21V54.34h20.11c3.3,0,4.49,2,4.49,5.57v2Z"/><path class="cls-1" d="M427.4,59.78c0-15.35,5.87-19,15.74-19H456c15.6,0,17.56-1,17.46,13.83l-28.18,0c-5.78,0-6.65,3.66-6.65,10.18v5.65c0,7.6,1.09,10.49,6.27,10.49l29.07,0c0,8.83-.12,13.49-11.12,13.49H443.14c-9.87,0-15.74-3.62-15.74-19V59.78Z"/><path class="cls-2" d="M94.2,3.47a76.7,76.7,0,0,0-21.27-3C32.7.49.08,31.23.08,69.17s32.62,68.68,72.85,68.68c37,0,67.49-26,72.2-59.61Z"/><path class="cls-3" d="M103.25,6.83A67,67,0,0,0,74.05,0C33.83-.69.68,29.72,0,67.93A66.21,66.21,0,0,0,2.48,87.06L23.27,57.91l14.08,22s4.23,4.8,1,9.65c-.2.31-19.1,26.41-19.1,26.41,13.06,13.68,31.42,22,52.37,22.4a73.54,73.54,0,0,0,51.88-19.57L79.3,49s7-9.79,12.43-17.54c6-8.54,11.41-2.58,13.21.24,13,20.33,37.3,58.89,37.3,58.89v-.22c2.49-5.74,3.77-7.47,4-15.73l-43-67.83h0M92.76,90.41s-11.77,17.17-13,18.81c-7.2,9.79-12.5-1.51-12.5-1.51L29.82,48.82s7-9.78,12.43-17.54c6-8.54,11.41-2.58,13.22.25,13,20.32,37.29,58.88,37.29,58.88Z"/><path d="M114.75,10.51a5.69,5.69,0,1,1,5.7,5.63,5.6,5.6,0,0,1-5.7-5.63h0m5.7,4.69A4.53,4.53,0,0,0,125,10.51a4.56,4.56,0,1,0-9.11,0,4.54,4.54,0,0,0,4.57,4.69h0m-1.18-1.44h-1V7.29h2.46c1.53,0,2.29.57,2.29,1.84a1.68,1.68,0,0,1-1.68,1.78l1.84,2.85h-1.1L120.39,11h-1.12v2.81h0m1.17-3.63c.83,0,1.57-.07,1.57-1.06,0-.8-.73-1-1.41-1h-1.33v2Z"/></g></g></svg>